<svg xmlns="http://www.w3.org/2000/svg" width="318.428" height="274.018" viewBox="0 0 318.428 274.018">
  <g id="abs-to" transform="translate(0.428 -3049)">
    <path id="Vector" d="M98.8,35.808A4.711,4.711,0,0,0,95,32.6L66.491,28.459,53.741,2.626a4.711,4.711,0,0,0-8.449,0L32.542,28.459,4.034,32.6a4.711,4.711,0,0,0-2.611,8.036L22.052,60.746l-4.87,28.393a4.711,4.711,0,0,0,6.835,4.966L49.516,80.7l25.5,13.406a4.711,4.711,0,0,0,6.836-4.966l-4.87-28.393L97.61,40.638a4.712,4.712,0,0,0,1.192-4.83Z" transform="translate(226.078 3049) rotate(21.844)" fill="#fcb901"/>
    <path id="Vector-2" data-name="Vector" d="M219.9,191.2c-11.828-19.59-24.4-38.811-36.224-58.4-2.218-3.7-8.5-2.218-8.132,2.218,0,8.5.37,16.633.37,25.135-5.914-6.284-7.393-13.677-8.5-22.547-.739-3.7-2.218-7.763-6.283-8.871-6.284-1.848-13.307,4.436-18.112,7.762-12.2,8.5-23.287,18.482-36.593,25.505-15.524,7.762-15.894-3.327-12.567-15.524,3.327-12.937,9.241-25.874,15.894-37.333,11.828-19.96,25.505-40.659,28.831-63.946,1.848-12.937-4.805-32.527-21.069-31.788-19.959.739-42.877,15.524-55.814,30.31-7.393,7.393-49.53,62.837-53.6,31.049C5.145,51.479,24.365,23.018,35.824,3.8,37.3,1.21,33.606-1.378,31.758.84,17.343,18.582,5.884,41.129.71,63.677c-2.587,12.2,1.479,34.745,19.221,29.94,20.7-5.544,34.376-28.831,47.682-44.356,8.132-9.98,21.069-17.373,32.158-23.287,23.656-12.567,34.376,5.914,28.461,27.353-7.392,26.244-26.244,47.682-36.963,72.447-3.7,8.871-17,38.441-2.587,45.834,16.633,8.5,38.811-12.568,50.639-21.808-.739.37,18.851-15.524,19.96-12.2s1.109,7.392,1.849,11.088c1.478,7.023,4.436,12.568,9.241,17A100.77,100.77,0,0,0,149.3,166.8c-3.7.739-4.066,6.284-1.109,8.132,21.069,11.828,44.725,14.785,67.273,22.547C218.791,198.961,222.118,194.525,219.9,191.2Zm-39.92-18.85a2.554,2.554,0,0,0,2.587-3.327,3.882,3.882,0,0,0,1.848-3.327V150.909c7.393,11.828,14.785,23.287,22.178,35.115-14.046-4.066-28.461-7.023-41.768-12.568C169.63,173.087,174.805,172.717,179.98,172.348Z" transform="translate(-0.428 3261.979) rotate(-72.023)" fill="#d5d8f3"/>
  </g>
</svg>
