<svg xmlns="http://www.w3.org/2000/svg" width="197.503" height="138.418" viewBox="0 0 197.503 138.418">
  <g id="Abstract" transform="translate(47.792 -131.172)">
    <path id="Vector" d="M50.486-18.3a2.407,2.407,0,0,1-1.943,1.638L33.975-14.542l-6.515,13.2A2.407,2.407,0,0,1,25.3,0a2.407,2.407,0,0,1-2.159-1.342l-6.515-13.2L2.061-16.659A2.407,2.407,0,0,1,.118-18.3a2.407,2.407,0,0,1,.609-2.468L11.268-31.04,8.78-45.548A2.407,2.407,0,0,1,9.737-47.9a2.407,2.407,0,0,1,2.535-.183L25.3-41.236l13.029-6.85a2.408,2.408,0,0,1,2.535.183,2.407,2.407,0,0,1,.958,2.354L39.336-31.04,49.877-20.765a2.408,2.408,0,0,1,.609,2.468Z" transform="translate(102.74 240) rotate(-21.844)" fill="#fcb901"/>
    <path id="Vector-2" data-name="Vector" d="M112.365-97.7c-6.044,10.01-12.466,19.832-18.51,29.842-1.133,1.889-4.344,1.134-4.156-1.133,0-4.344.189-8.5.189-12.843-3.022,3.211-3.777,6.989-4.344,11.521-.378,1.889-1.133,3.967-3.211,4.533-3.211.944-6.8-2.266-9.255-3.966-6.233-4.344-11.9-9.444-18.7-13.033-7.933-3.966-8.122,1.7-6.422,7.933A77.387,77.387,0,0,0,56.08-55.769c6.044,10.2,13.033,20.776,14.732,32.675.944,6.611-2.455,16.621-10.766,16.243-10.2-.378-21.909-7.933-28.52-15.488C27.749-26.116,6.217-54.447,4.14-38.2,2.629-26.305,12.45-11.762,18.305-1.94A1.3,1.3,0,0,1,16.228-.429,81.351,81.351,0,0,1,.363-32.538c-1.322-6.233.755-17.754,9.821-15.3C20.761-45,27.749-33.1,34.549-25.171c4.155,5.1,10.766,8.877,16.432,11.9,12.088,6.422,17.565-3.022,14.543-13.977-3.777-13.41-13.41-24.364-18.887-37.019-1.889-4.533-8.688-19.643-1.322-23.42,8.5-4.344,19.832,6.422,25.876,11.144-.378-.189,9.633,7.933,10.2,6.233s.567-3.777.945-5.666a15.724,15.724,0,0,1,4.722-8.688,51.491,51.491,0,0,1-10.766-.567c-1.889-.378-2.078-3.211-.567-4.155,10.766-6.044,22.854-7.555,34.375-11.521C111.8-101.665,113.5-99.4,112.365-97.7Zm-20.4,9.632a1.3,1.3,0,0,1,1.322,1.7,1.983,1.983,0,0,1,.944,1.7v7.555c3.777-6.044,7.555-11.9,11.332-17.943-7.177,2.078-14.543,3.589-21.342,6.422C86.678-88.444,89.322-88.255,91.966-88.066Z" transform="translate(-13 131.172) rotate(107.977)" fill="#e3eaf3"/>
  </g>
</svg>
