<svg xmlns="http://www.w3.org/2000/svg" width="27.427" height="27.576" viewBox="0 0 27.427 27.576">
  <g id="Group_1000001631" data-name="Group 1000001631" transform="translate(-308.287 -1349)">
    <path id="Subtract" d="M13.713,5.851a2.743,2.743,0,0,0,1.521-.461L19.2,2.747v12.7a1.371,1.371,0,0,1-1.371,1.371H16.456v2.743h1.371a4.114,4.114,0,0,0,4.114-4.114V2.747A2.743,2.743,0,0,0,17.677.465L13.713,3.108h-9.6A4.114,4.114,0,0,0,0,7.222V8.593H2.743V7.222A1.371,1.371,0,0,1,4.114,5.851Z" transform="translate(313.772 1349)" fill="#ae68fa"/>
    <g id="Rectangle_192_Stroke_" data-name="Rectangle 192 (Stroke)" transform="translate(308.287 1357.593)" fill="#fff">
      <path d="M 2.75604772567749 17.98282814025879 C 2.755976676940918 17.98282814025879 2.755944967269897 17.98282814025879 2.755874156951904 17.98282814025879 C 1.892764091491699 17.98272705078125 1.000004172325134 17.32892799377441 1.000004172325134 16.23498725891113 L 1.000004172325134 4.11402702331543 C 1.000004172325134 2.396947145462036 2.39695405960083 0.9999971985816956 4.114034175872803 0.9999971985816956 L 17.82746505737305 0.9999971985816956 C 19.5445442199707 0.9999971985816956 20.94148445129395 2.396947145462036 20.94148445129395 4.11402702331543 L 20.94148445129395 12.34208679199219 C 20.94148445129395 14.05916690826416 19.5445442199707 15.45611763000488 17.82746505737305 15.45611763000488 L 6.856714248657227 15.45611763000488 L 6.505934238433838 15.45611763000488 L 6.232014179229736 15.67524719238281 L 3.831334114074707 17.59579658508301 C 3.514852046966553 17.84899139404297 3.143001079559326 17.98282814025879 2.75604772567749 17.98282814025879 Z" stroke="none"/>
      <path d="M 2.755759716033936 18.98282432556152 C 1.337491512298584 18.98266410827637 4.132995400141226e-06 17.86548042297363 4.132995400141226e-06 16.23498725891113 L 4.132995400141226e-06 4.11402702331543 C 4.132995400141226e-06 1.841917276382446 1.841914176940918 -2.781066996249137e-06 4.114034175872803 -2.781066996249137e-06 L 17.82746505737305 -2.781066996249137e-06 C 20.09957504272461 -2.781066996249137e-06 21.94148445129395 1.841917276382446 21.94148445129395 4.11402702331543 L 21.94148445129395 12.34208679199219 C 21.94148445129395 14.61420726776123 20.09957504272461 16.45611763000488 17.82746505737305 16.45611763000488 L 6.856714248657227 16.45611763000488 L 4.456034183502197 18.37666702270508 C 3.933425426483154 18.79475402832031 3.337913751602173 18.98289108276367 2.755759716033936 18.98282432556152 Z M 4.114034175872803 2.742687225341797 C 3.356654167175293 2.742687225341797 2.742684125900269 3.356657266616821 2.742684125900269 4.11402702331543 L 2.742684125900269 16.23498725891113 L 5.143373966217041 14.31443691253662 C 5.629683971405029 13.92538738250732 6.233933925628662 13.71342754364014 6.856714248657227 13.71342754364014 L 17.82746505737305 13.71342754364014 C 18.58483505249023 13.71342754364014 19.19880485534668 13.09945678710938 19.19880485534668 12.34208679199219 L 19.19880485534668 4.11402702331543 C 19.19880485534668 3.356657266616821 18.58483505249023 2.742687225341797 17.82746505737305 2.742687225341797 L 4.114034175872803 2.742687225341797 Z" stroke="none" fill="#ae68fa"/>
    </g>
    <path id="Vector_409_Stroke_" data-name="Vector 409 (Stroke)" d="M0,1.371A1.371,1.371,0,0,1,1.371,0H9.6a1.371,1.371,0,0,1,0,2.743H1.371A1.371,1.371,0,0,1,0,1.371Z" transform="translate(313.772 1364.45)" fill="#ae68fa"/>
  </g>
</svg>
