<svg xmlns="http://www.w3.org/2000/svg" width="24.822" height="27.58" viewBox="0 0 24.822 27.58">
  <g id="Group_194" data-name="Group 194" transform="translate(-954 -1659)">
    <path id="Rectangle_193_Stroke_" data-name="Rectangle 193 (Stroke)" d="M4.137,2.758A1.379,1.379,0,0,0,2.758,4.137V23.443a1.379,1.379,0,0,0,1.379,1.379H20.685a1.379,1.379,0,0,0,1.379-1.379V13.79a1.379,1.379,0,1,1,2.758,0v9.653a4.137,4.137,0,0,1-4.137,4.137H4.137A4.137,4.137,0,0,1,0,23.443V4.137A4.137,4.137,0,0,1,4.137,0h8.274a1.379,1.379,0,0,1,0,2.758Z" transform="translate(954 1659)" fill="#ae68fa"/>
    <path id="Union" d="M1.054,11.613a1.379,1.379,0,0,0-.39.78l-.65,4.55a1.379,1.379,0,0,0,1.56,1.56l4.55-.65a1.379,1.379,0,0,0,.78-.39l10.4-10.4a4.137,4.137,0,1,0-5.851-5.851ZM12.43,8.037,5.28,15.188,3,15.513l.325-2.275L10.48,6.087Zm1.95-1.95-1.95-1.95.975-.975a1.379,1.379,0,1,1,1.95,1.95Z" transform="translate(959.929 1660.714)" fill="#ae68fa"/>
  </g>
</svg>
