<svg xmlns="http://www.w3.org/2000/svg" width="155.787" height="32" viewBox="0 0 155.787 32">
  <g id="Group_546" data-name="Group 546" transform="translate(-1129.213 -903)">
    <g id="Group">
      <g id="Group-2" data-name="Group">
        <path id="Vector" d="M8.815,15.345A8.69,8.69,0,0,0,9.129,12.5a8.8,8.8,0,0,0-.315-2.842A2.913,2.913,0,0,0,5.781,7.616,2.909,2.909,0,0,0,2.776,9.662,9.615,9.615,0,0,0,2.461,12.5a9.37,9.37,0,0,0,.315,2.841A2.931,2.931,0,0,0,5.781,17.42,2.934,2.934,0,0,0,8.815,15.345Zm.6,3.978a.27.27,0,0,1-.286-.284V17.733H9.1a4.181,4.181,0,0,1-3.892,1.9A4.529,4.529,0,0,1,.486,16.368,11.255,11.255,0,0,1,0,12.5,11.185,11.185,0,0,1,.486,8.667,4.529,4.529,0,0,1,5.209,5.4,4.167,4.167,0,0,1,9.1,7.275h.028V.284A.27.27,0,0,1,9.416,0h1.832a.27.27,0,0,1,.286.284V19.04a.269.269,0,0,1-.286.284Zm13.91-4.4V13.413a.151.151,0,0,0-.172-.171H20.407c-2.376,0-3.406.682-3.406,2.216,0,1.393,1.03,2.132,2.862,2.132C22.009,17.59,23.326,16.6,23.326,14.919Zm.343,4.4a.269.269,0,0,1-.286-.284V17.846h-.029c-.629,1.023-1.975,1.79-4.064,1.79-2.6,0-4.608-1.335-4.608-4.092,0-2.87,2-4.206,5.352-4.206h3.12a.151.151,0,0,0,.172-.171v-.995c0-1.875-.744-2.671-3.291-2.671a5.355,5.355,0,0,0-3.32.966.255.255,0,0,1-.4-.029l-.773-1.307a.3.3,0,0,1,.057-.4A7.644,7.644,0,0,1,20.263,5.4c3.892,0,5.381,1.279,5.381,4.632v9.008a.269.269,0,0,1-.286.284Zm5.7,5.115a.269.269,0,0,1-.286-.284V22.506a.269.269,0,0,1,.286-.284h.515c1.116,0,1.717-.483,2.318-2.046l.458-1.25L27.62,6c-.057-.17.029-.284.229-.284h2A.335.335,0,0,1,30.2,6L33.8,15.828h.057L37.322,6a.334.334,0,0,1,.343-.284h1.946c.172,0,.286.114.229.284L34.431,20.375c-1.2,3.211-2.261,4.063-4.322,4.063Z" transform="translate(1245.145 909.371)" fill="#3e4581"/>
      </g>
      <path id="Vector-2" data-name="Vector" d="M10.876,5.769c0-2.1-1.4-3.41-3.806-3.41H2.719a.151.151,0,0,0-.172.171V9.008a.151.151,0,0,0,.172.17h4.35C9.473,9.179,10.876,7.872,10.876,5.769ZM.286,19.323A.27.27,0,0,1,0,19.039V.284A.27.27,0,0,1,.286,0H7.212c3.749,0,6.182,2.273,6.182,5.769s-2.433,5.768-6.182,5.768H2.719a.151.151,0,0,0-.172.171v7.332a.269.269,0,0,1-.286.284Zm19.033.142c-2.4,0-3.349-1.137-3.349-3.581V.284A.27.27,0,0,1,16.257,0h1.832a.27.27,0,0,1,.286.284V15.743c0,1.137.429,1.506,1.374,1.506h.544a.269.269,0,0,1,.286.284v1.648a.27.27,0,0,1-.286.284Zm11.735-4.547V13.413a.151.151,0,0,0-.172-.171H28.135c-2.376,0-3.406.682-3.406,2.216,0,1.393,1.03,2.132,2.862,2.132C29.738,17.59,31.054,16.6,31.054,14.919Zm.343,4.4a.269.269,0,0,1-.286-.284V17.846h-.029c-.629,1.023-1.975,1.79-4.064,1.79-2.6,0-4.608-1.335-4.608-4.092,0-2.87,2-4.206,5.352-4.206h3.12a.151.151,0,0,0,.172-.171v-.995c0-1.875-.744-2.671-3.291-2.671a5.355,5.355,0,0,0-3.32.966.255.255,0,0,1-.4-.029l-.773-1.307a.3.3,0,0,1,.057-.4A7.644,7.644,0,0,1,27.992,5.4c3.892,0,5.381,1.279,5.381,4.632v9.008a.269.269,0,0,1-.286.284Zm14.6,0a.269.269,0,0,1-.286-.284V11.082c0-2.188-1-3.467-3.063-3.467A3.064,3.064,0,0,0,39.5,10.941v8.1a.269.269,0,0,1-.286.284H37.38a.269.269,0,0,1-.286-.284V6a.27.27,0,0,1,.286-.284h1.832A.27.27,0,0,1,39.5,6v1.25h.028A4.344,4.344,0,0,1,43.361,5.4c2.977,0,4.751,2.018,4.751,5.115v8.525a.269.269,0,0,1-.286.284Z" transform="translate(1194.143 909.372)" fill="#3e4581"/>
      <path id="Vector-3" data-name="Vector" d="M41.045,10.441a13.164,13.164,0,0,0-4.483-7.293A13.315,13.315,0,0,0,17.753,4.773h0L.772,24.867a2.473,2.473,0,0,0,.206,3.772,2.514,2.514,0,0,0,3.778-.453L14.923,16.155,21.69,8.148h0l.045-.056c.093-.11.187-.215.283-.319l.048-.049a8.158,8.158,0,0,1,11.191-.668l.055.032A8.031,8.031,0,0,1,34.232,18.5c-.092.109-.315.351-.33.368a8.176,8.176,0,0,1-11.246.636,8.29,8.29,0,0,1-1.692-1.937,1.455,1.455,0,0,0-2.343-.165l-2.178,2.583a13.42,13.42,0,0,0,2.963,3.46,13.316,13.316,0,0,0,18.809-1.625A15.2,15.2,0,0,0,41.045,10.441Z" transform="translate(1129.213 905.701)" fill="#3e4581"/>
      <path id="Vector-4" data-name="Vector" d="M24.611,13.144,34.778,1.113A2.513,2.513,0,0,1,38.556.66a2.473,2.473,0,0,1,.207,3.772L21.773,24.523A13.316,13.316,0,0,1,2.963,26.149,13.43,13.43,0,0,1,0,22.689l2.178-2.584a1.455,1.455,0,0,1,2.343.165,8.346,8.346,0,0,0,1.7,1.939,8.17,8.17,0,0,0,11.233-.635s.262-.288.33-.368Z" transform="translate(1145.656 903)" fill="#3e4581"/>
    </g>
  </g>
</svg>
