<svg xmlns="http://www.w3.org/2000/svg" xmlns:xlink="http://www.w3.org/1999/xlink" width="38.116" height="42.455" viewBox="0 0 38.116 42.455">
  <defs>
    <filter id="Rectangle_Stroke_" x="0" y="0" width="38.116" height="42.455" filterUnits="userSpaceOnUse">
      <feOffset dy="1.037" input="SourceAlpha"/>
      <feGaussianBlur stdDeviation="2.479" result="blur"/>
      <feFlood flood-opacity="0.055"/>
      <feComposite operator="in" in2="blur"/>
      <feComposite in="SourceGraphic"/>
    </filter>
  </defs>
  <g id="Group_1000001632" data-name="Group 1000001632" transform="translate(-624.563 -1342.599)">
    <g transform="matrix(1, 0, 0, 1, 624.56, 1342.6)" filter="url(#Rectangle_Stroke_)">
      <g id="Rectangle_Stroke_2" data-name="Rectangle (Stroke)" transform="translate(7.44 6.4)" fill="none">
        <path d="M11.212,2.746,3.465,5.422a1.335,1.335,0,0,0-.883,1.27v7.144A9.991,9.991,0,0,0,5.79,20.809,22.234,22.234,0,0,0,11.4,24.847a.471.471,0,0,0,.447,0,22.234,22.234,0,0,0,5.607-4.038,9.991,9.991,0,0,0,3.208-6.973V6.692a1.335,1.335,0,0,0-.883-1.27L12.029,2.746A1.248,1.248,0,0,0,11.212,2.746Zm-8.564.137A4.006,4.006,0,0,0,0,6.692v7.144C0,21.2,7.179,25.67,10.252,27.246a2.971,2.971,0,0,0,2.737,0c3.073-1.576,10.252-6.046,10.252-13.41V6.692a4.006,4.006,0,0,0-2.649-3.809L12.845.206a3.744,3.744,0,0,0-2.45,0Z" stroke="none"/>
        <path d="M 11.62053775787354 -1.9073486328125e-06 C 12.03421878814697 -1.9073486328125e-06 12.44789886474609 0.06868362426757812 12.84544849395752 0.2060527801513672 L 20.59247970581055 2.882883071899414 C 22.17419815063477 3.429412841796875 23.24107933044434 4.96379280090332 23.24107933044434 6.692071914672852 L 23.24107933044434 13.83617305755615 C 23.24107933044434 21.20015335083008 16.06190872192383 25.67008209228516 12.98925876617432 27.24596214294434 C 12.12083911895752 27.69135284423828 11.12022876739502 27.69135284423828 10.25180912017822 27.24596214294434 C 7.179159164428711 25.67008209228516 -1.9073486328125e-06 21.20015335083008 -1.9073486328125e-06 13.83617305755615 L -1.9073486328125e-06 6.692071914672852 C -1.9073486328125e-06 4.96379280090332 1.066879272460938 3.429412841796875 2.648599624633789 2.882883071899414 L 10.3956184387207 0.2060527801513672 C 10.79317378997803 0.06868362426757812 11.20685577392578 -1.9073486328125e-06 11.62053775787354 -1.9073486328125e-06 Z M 11.62053394317627 24.90316963195801 C 11.69563388824463 24.90316963195801 11.77073383331299 24.88435745239258 11.8440990447998 24.84673309326172 C 13.25996875762939 24.12057304382324 15.54933929443359 22.75954246520996 17.4510498046875 20.80887222290039 C 19.34866905212402 18.86240386962891 20.65873908996582 16.54742240905762 20.65873908996582 13.83617305755615 L 20.65873908996582 6.692071914672852 C 20.65873908996582 6.115982055664062 20.30310821533203 5.604522705078125 19.77586936950684 5.422351837158203 L 12.02883911132812 2.745512008666992 C 11.76380920410156 2.653932571411133 11.47726821899414 2.653932571411133 11.21222877502441 2.745512008666992 L 3.465208053588867 5.422342300415039 C 2.937969207763672 5.604522705078125 2.582338333129883 6.115982055664062 2.582338333129883 6.692071914672852 L 2.582338333129883 13.83617305755615 C 2.582338333129883 16.54742240905762 3.89240837097168 18.86240386962891 5.790018081665039 20.80887222290039 C 7.691739082336426 22.75954246520996 9.981108665466309 24.12057304382324 11.39696884155273 24.84673309326172 C 11.47033405303955 24.88435745239258 11.54543399810791 24.90316963195801 11.62053394317627 24.90316963195801 Z" stroke="none" fill="#ae68fa"/>
      </g>
    </g>
  </g>
</svg>
