<svg xmlns="http://www.w3.org/2000/svg" width="148.417" height="19.629" viewBox="0 0 148.417 19.629">
  <g id="Group_544" data-name="Group 544" transform="translate(-653.654 -908.867)">
    <g id="Group">
      <g id="Group-2" data-name="Group">
        <g id="Group-3" data-name="Group">
          <path id="Vector" d="M0,0H4.678V19.227H0Z" transform="translate(714.346 908.867)" fill="#3e4581"/>
        </g>
        <g id="Group-4" data-name="Group">
          <path id="Vector-2" data-name="Vector" d="M2.258,8.215H0V5.253H2.258C2.258,1.238,3.691,0,7.685,0,8.425,0,9.2.053,9.94.081V3.312a9.922,9.922,0,0,0-1.264-.081c-1.073,0-1.734.134-1.734,1.4v.622H9.748V8.215H6.941V19.227H2.258Z" transform="translate(720.94 908.867)" fill="#3e4581"/>
        </g>
        <g id="Group-5" data-name="Group">
          <path id="Vector-3" data-name="Vector" d="M4.462,9.774a1.865,1.865,0,0,0,.771,1.563,2.962,2.962,0,0,0,1.734.486c.908,0,2.2-.379,2.2-1.482,0-1.075-1.459-1.294-2.282-1.485C3.938,8.133.25,8.052.25,4.281.25.915,3.965,0,6.775,0c3.136,0,6.412.89,6.576,4.522H9.03a1.3,1.3,0,0,0-.607-1.21,2.806,2.806,0,0,0-1.487-.35c-.767,0-2.008.081-2.008,1.051,0,1.318,3.139,1.563,5.288,2.018C13.1,6.6,13.848,8.645,13.848,9.8c0,3.745-3.632,4.981-6.854,4.981-3.386,0-6.854-1.1-6.994-5.008Z" transform="translate(739.334 913.714)" fill="#3e4581"/>
        </g>
        <g id="Group-6" data-name="Group">
          <path id="Vector-4" data-name="Vector" d="M0,0H4.681V7.162h.055A5.014,5.014,0,0,1,9.085,4.847c4.764,0,5.147,3.392,5.147,5.414v8.966H9.555V12.468c0-1.912.219-3.853-2.341-3.853-1.762,0-2.533,1.457-2.533,2.99v7.622H0Z" transform="translate(754.867 908.867)" fill="#3e4581"/>
        </g>
        <g id="Group-7" data-name="Group">
          <path id="Vector-5" data-name="Vector" d="M4.681,8.511a3.018,3.018,0,0,0,3.2,3.178,2.805,2.805,0,0,0,2.666-1.536h4.38c-.853,3.232-3.91,4.629-7.1,4.629C3.17,14.782,0,12.037,0,7.351A7.425,7.425,0,0,1,7.711,0c5.12,0,7.68,3.768,7.461,8.511ZM10.49,5.95A2.857,2.857,0,0,0,7.711,3.1,3.059,3.059,0,0,0,4.681,5.95Z" transform="translate(770.729 913.714)" fill="#3e4581"/>
        </g>
        <g id="Group-8" data-name="Group">
          <path id="Vector-6" data-name="Vector" d="M0,.27H4.544V2.717H4.6A4.316,4.316,0,0,1,8.893,0,5.135,5.135,0,0,1,10,.105V4.281A6.726,6.726,0,0,0,8.2,4.011,3.253,3.253,0,0,0,4.681,7.324v6.921H0Z" transform="translate(787.812 913.85)" fill="#3e4581"/>
        </g>
        <g id="Group-9" data-name="Group">
          <path id="Vector-7" data-name="Vector" d="M0,5.181H4.685V19.155H0ZM4.668,0H0V3.24H4.668Z" transform="translate(732.869 908.939)" fill="#3e4581"/>
        </g>
        <g id="Group-10" data-name="Group">
          <path id="Vector-8" data-name="Vector" d="M4.668,3.242H0V0H4.668Z" transform="translate(797.403 924.843)" fill="#3e4581"/>
        </g>
        <g id="Group-11" data-name="Group">
          <path id="Vector-9" data-name="Vector" d="M4.678,8.511a3.017,3.017,0,0,0,3.194,3.178,2.8,2.8,0,0,0,2.67-1.536h4.376c-.85,3.232-3.906,4.629-7.1,4.629C3.166,14.782,0,12.037,0,7.351A7.422,7.422,0,0,1,7.707,0c5.12,0,7.68,3.768,7.46,8.511Zm5.809-2.56A2.857,2.857,0,0,0,7.707,3.1,3.059,3.059,0,0,0,4.678,5.95Z" transform="translate(669.864 913.714)" fill="#3e4581"/>
        </g>
        <g id="Group-12" data-name="Group">
          <path id="Vector-10" data-name="Vector" d="M9.853,14.38a5.412,5.412,0,0,1-.274-1.321,6.527,6.527,0,0,1-4.705,1.723C2.145,14.782,0,13.435,0,10.555,0,6,5.062,6.358,8.314,5.709c.8-.161,1.237-.43,1.237-1.292,0-1.049-1.3-1.455-2.258-1.455a2.088,2.088,0,0,0-2.341,1.75H.576A4.273,4.273,0,0,1,2.807.97,9.6,9.6,0,0,1,7.348,0c3.389,0,6.662.726,6.662,4.685v9.7ZM6.634,11.956c2.228,0,2.971-1.24,2.862-4.121a13.528,13.528,0,0,1-2.889.755c-1.049.242-1.929.675-1.929,1.777C4.678,11.5,5.586,11.956,6.634,11.956Z" transform="translate(686.114 913.714)" fill="#3e4581"/>
        </g>
        <g id="Group-13" data-name="Group">
          <path id="Vector-11" data-name="Vector" d="M0,.27H4.544V2.717H4.6A4.317,4.317,0,0,1,8.89,0a5.129,5.129,0,0,1,1.1.105V4.281A6.719,6.719,0,0,0,8.2,4.011,3.254,3.254,0,0,0,4.678,7.324v6.921H0Z" transform="translate(702.595 913.85)" fill="#3e4581"/>
        </g>
      </g>
      <g id="Group-14" data-name="Group">
        <g id="Group-15" data-name="Group">
          <path id="Vector-12" data-name="Vector" d="M0,0H9.147c3.709,0,7.2,1.665,7.2,6.278,0,4.83-2.817,6.714-7.2,6.714H5.189v6.495H0ZM5.189,9.059H8.366c1.619,0,2.789-.654,2.789-2.429,0-1.828-1.2-2.562-2.789-2.562H5.189Z" transform="translate(653.654 908.955)" fill="#3e4581"/>
        </g>
      </g>
      <g id="Group-16" data-name="Group">
        <g id="Group-17" data-name="Group">
          <path id="Vector-13" data-name="Vector" d="M4.7,3.261H0V0H4.7Z" transform="translate(797.309 924.888)" fill="#3e4581"/>
        </g>
      </g>
    </g>
  </g>
</svg>
