<svg xmlns="http://www.w3.org/2000/svg" width="119.223" height="24.573" viewBox="0 0 119.223 24.573">
  <g id="Group_545" data-name="Group 545" transform="translate(-906.031 -906.911)">
    <g id="Group">
      <path id="Vector" d="M11.343,8.322a2.026,2.026,0,0,0-.524-.362A4.727,4.727,0,0,0,11.9,4.915a4.853,4.853,0,0,0-1.849-3.8A5.5,5.5,0,0,0,6.411,0H0V18.151H7.213a6.135,6.135,0,0,0,4.1-1.236,5.477,5.477,0,0,0,2.1-4.281A5.371,5.371,0,0,0,11.343,8.322Zm-8.137-5.4h2.62c1.479,0,1.973.3,2.25.633A2,2,0,0,1,8.63,4.915a1.918,1.918,0,0,1-.555,1.357c-.308.332-.771.633-2.25.633H3.206ZM9.4,14.382c-.432.422-1.079.814-2.774.814H3.206V9.859H6.658c1.7,0,2.312.392,2.743.814a2.616,2.616,0,0,1,0,3.709Z" transform="translate(906.031 907.092)" fill="#3e4581"/>
      <path id="Vector-2" data-name="Vector" d="M0,0H3.021V12.392H0Z" transform="translate(929.888 912.851)" fill="#3e4581"/>
      <path id="Vector-3" data-name="Vector" d="M1.88,0a1.854,1.854,0,1,0,0,3.709A1.856,1.856,0,0,0,3.791,1.869,1.9,1.9,0,0,0,1.88,0Z" transform="translate(929.487 907.062)" fill="#3e4581"/>
      <path id="Vector-4" data-name="Vector" d="M9.863,1.055A6.1,6.1,0,0,0,6.35,0,6.265,6.265,0,0,0,3.236.784,6.5,6.5,0,0,0,0,6.422,6.353,6.353,0,0,0,3.236,12.03a6.61,6.61,0,0,0,3.175.814,5.789,5.789,0,0,0,3.36-.995v.09a5.084,5.084,0,0,1-.616,2.894A3.077,3.077,0,0,1,6.442,16.07a4.53,4.53,0,0,1-3.76-1.99L2.5,13.839.308,15.829l.123.181a7.281,7.281,0,0,0,6.134,2.864A5.966,5.966,0,0,0,12.052,15.8a8.427,8.427,0,0,0,.74-4.01V.241H9.863v.814ZM9.771,8.563A3.945,3.945,0,0,1,6.719,10.07,3.639,3.639,0,0,1,2.99,6.452,3.517,3.517,0,0,1,6.6,2.834,4.193,4.193,0,0,1,9.771,4.342Z" transform="translate(934.419 912.61)" fill="#3e4581"/>
      <path id="Vector-5" data-name="Vector" d="M6.288,5.548a5.785,5.785,0,0,0-3.267.995V0H0V18.181H3.021V9.889A4.239,4.239,0,0,1,6.226,8.382,2.921,2.921,0,0,1,8.507,9.437,3.632,3.632,0,0,1,9.154,12v6.181h3.021v-6.06a6.527,6.527,0,0,0-1.233-4.372A5.967,5.967,0,0,0,6.288,5.548Z" transform="translate(948.906 907.062)" fill="#3e4581"/>
      <path id="Vector-6" data-name="Vector" d="M9.555.784A6.265,6.265,0,0,0,6.442,0,6.1,6.1,0,0,0,2.928,1.055V.271H0V18.694H3.021V11.879a5.789,5.789,0,0,0,3.36.995,6.52,6.52,0,0,0,3.175-.814,6.388,6.388,0,0,0,3.236-5.608A6.52,6.52,0,0,0,9.555.784ZM6.072,10.07A4.041,4.041,0,0,1,3.021,8.563V4.312A4.144,4.144,0,0,1,6.2,2.8,3.535,3.535,0,0,1,9.8,6.422,3.645,3.645,0,0,1,6.072,10.07Z" transform="translate(971.221 912.61)" fill="#3e4581"/>
      <path id="Vector-7" data-name="Vector" d="M6.165,0A6.1,6.1,0,0,0,0,6.452,6.349,6.349,0,0,0,6.534,12.9a6.541,6.541,0,0,0,5.3-2.322l.154-.211-2-1.839L9.8,8.744a4.135,4.135,0,0,1-3.267,1.508A3.625,3.625,0,0,1,2.928,7.236h9.247l.031-.241a4,4,0,0,0,.031-.543A6.139,6.139,0,0,0,6.165,0ZM3.236,4.643a3.247,3.247,0,0,1,3.021-2.02,3.1,3.1,0,0,1,2.8,2.02Z" transform="translate(985.338 912.61)" fill="#3e4581"/>
      <path id="Vector-8" data-name="Vector" d="M9.863,1.055A6.1,6.1,0,0,0,6.349,0,6.265,6.265,0,0,0,3.236.784,6.5,6.5,0,0,0,0,6.422,6.353,6.353,0,0,0,3.236,12.03a6.61,6.61,0,0,0,3.175.814,6.18,6.18,0,0,0,3.452-1.025V12.6h2.928V.241H9.863ZM9.771,8.563A3.945,3.945,0,0,1,6.719,10.07,3.639,3.639,0,0,1,2.99,6.452,3.517,3.517,0,0,1,6.6,2.834,4.193,4.193,0,0,1,9.771,4.342Z" transform="translate(998.838 912.61)" fill="#3e4581"/>
      <path id="Vector-9" data-name="Vector" d="M0,0H3.021V18.332H0Z" transform="translate(1022.233 906.911)" fill="#3e4581"/>
      <path id="Vector-10" data-name="Vector" d="M6.719,15.467a6.272,6.272,0,0,1-1.51.181,2.545,2.545,0,0,1-1.819-.663,2.568,2.568,0,0,1-.37-1.658V8.442h3.7V5.789h-3.7V0H0V13.146a5.108,5.108,0,0,0,1.14,3.648,5.146,5.146,0,0,0,3.976,1.6,9.311,9.311,0,0,0,1.6-.151Z" transform="translate(962.807 907.062)" fill="#3e4581"/>
      <g id="Group-2" data-name="Group">
        <path id="Vector-11" data-name="Vector" d="M7.552.121A5.794,5.794,0,0,0,6.288,0,5.785,5.785,0,0,0,3.021.995V.241H0V12.633H3.021V4.342A4.239,4.239,0,0,1,6.226,2.834a3.545,3.545,0,0,1,1.356.3Z" transform="translate(920.733 912.61)" fill="#3e4581"/>
      </g>
      <g id="Group-3" data-name="Group">
        <path id="Vector-12" data-name="Vector" d="M7.552.121A5.794,5.794,0,0,0,6.288,0,5.785,5.785,0,0,0,3.021.995V.241H0V12.633H3.021V4.342A4.239,4.239,0,0,1,6.226,2.834a3.545,3.545,0,0,1,1.356.3Z" transform="translate(1013.325 912.61)" fill="#3e4581"/>
      </g>
    </g>
  </g>
</svg>
