<svg xmlns="http://www.w3.org/2000/svg" width="134.948" height="22.49" viewBox="0 0 134.948 22.49">
  <g id="Group_543" data-name="Group 543" transform="translate(-414.746 -906.911)">
    <path id="Vector" d="M119.449,13.474c0-5.284,1.47-8.982,7.749-8.982s7.749,3.7,7.749,8.982-1.47,8.982-7.749,8.982C121.052,22.456,119.449,18.758,119.449,13.474Zm11.624,0c0-3.7-.534-5.812-3.741-5.812s-3.741,2.114-3.741,5.812.534,5.812,3.741,5.812S131.073,17.04,131.073,13.474ZM12.159,21.8c.134.132.267.264.4.264h1.47a.572.572,0,0,0,.534-.528V5.284a.572.572,0,0,0-.534-.528H11.223a.572.572,0,0,0-.534.528V18.1a8.64,8.64,0,0,1-4.008,1.057c-1.871,0-2.806-.793-2.806-2.51V5.284a.572.572,0,0,0-.534-.528H.534A.572.572,0,0,0,0,5.284V16.908c0,3.3,1.6,5.548,6.013,5.548a9.511,9.511,0,0,0,5.612-1.849l.534,1.189ZM44.76,9.907c0-3.3-1.6-5.548-5.745-5.548A10.748,10.748,0,0,0,33.4,6.076c-.668-1.057-2.138-1.717-4.409-1.717a8.359,8.359,0,0,0-5.211,1.849L23.248,5.02c-.134-.132-.267-.264-.4-.264h-1.47a.572.572,0,0,0-.534.528V21.532a.572.572,0,0,0,.534.528h2.939a.572.572,0,0,0,.534-.528V8.718a7.141,7.141,0,0,1,3.608-1.057c1.6,0,2.539.528,2.539,2.246V21.532a.572.572,0,0,0,.534.528h2.939a.572.572,0,0,0,.534-.528V8.718a7.141,7.141,0,0,1,3.608-1.057c1.47,0,2.539.528,2.539,2.246V21.532a.572.572,0,0,0,.534.528h2.939a.572.572,0,0,0,.534-.528l-.4-11.624Zm8.952,10.7a9.511,9.511,0,0,0,5.612,1.849c5.077,0,6.948-3.434,6.948-8.982S64.4,4.491,59.324,4.491a9.579,9.579,0,0,0-4.676,1.321V.528A.572.572,0,0,0,54.113,0H51.173c-.267,0-.4.264-.4.528v21a.572.572,0,0,0,.534.528h1.47c.134,0,.4-.132.4-.264Zm4.676-1.453A7.244,7.244,0,0,1,54.647,18.1V8.718a7.623,7.623,0,0,1,3.741-1.057c3.474,0,3.875,2.642,3.875,5.812S61.862,19.154,58.388,19.154ZM80.7,7.794c-.4,0-.935-.132-1.336-.132a8.381,8.381,0,0,0-4.409,1.057V21.532a.572.572,0,0,1-.534.528H71.482a.572.572,0,0,1-.534-.528V5.284a.572.572,0,0,1,.534-.528h1.47c.134,0,.4.132.4.264l.534,1.189a9.117,9.117,0,0,1,5.478-1.849,4.6,4.6,0,0,1,1.336.132c.267,0,.534.4.534.66V7.265A.572.572,0,0,1,80.7,7.794Zm10.021,6.341c-1.737.264-2.806.793-2.806,2.642,0,1.321.534,2.51,2.672,2.51A6.3,6.3,0,0,0,94.33,18.1V13.606ZM95.4,20.607a8.359,8.359,0,0,1-5.211,1.849c-4.543,0-6.013-2.774-6.013-5.548,0-3.7,2.405-5.284,6.413-5.68l3.875-.264v-.793c0-1.717-.8-2.51-3.474-2.51a15.289,15.289,0,0,0-4.81.793h-.134a.572.572,0,0,1-.534-.528V5.68c0-.264.134-.4.4-.528a18.929,18.929,0,0,1,5.344-.925c5.745,0,7.081,2.51,7.081,6.076V21.267a.572.572,0,0,1-.534.528h-1.47c-.134,0-.4-.132-.4-.264l-.534-.925Zm19.775-2.114h.134a.572.572,0,0,1,.534.528v2.246a.684.684,0,0,1-.267.528,10.566,10.566,0,0,1-4.543.66c-6.146,0-8.017-3.7-8.017-8.982s1.871-8.982,8.017-8.982a12.318,12.318,0,0,1,4.409.66.684.684,0,0,1,.267.528V7.926a.572.572,0,0,1-.534.528h-.134a12.486,12.486,0,0,0-3.875-.528c-3.34,0-4.409,2.246-4.409,5.68s.935,5.68,4.409,5.68A30.651,30.651,0,0,0,115.173,18.493Z" transform="translate(414.746 906.911)" fill="#3e4581"/>
  </g>
</svg>
