<svg xmlns="http://www.w3.org/2000/svg" width="101.001" height="17" viewBox="0 0 101.001 17">
  <g id="Review" transform="translate(-669 -4496)">
    <path id="Star_1" data-name="Star 1" d="M9.182,0l2.3,6.322,6.887.171L12.9,10.572,14.857,17,9.182,13.2,3.507,17l1.961-6.428L0,6.493l6.887-.171Z" transform="translate(669 4496)" fill="#fbb040"/>
    <path id="Star_2" data-name="Star 2" d="M9.182,0l2.3,6.322,6.887.171L12.9,10.572,14.857,17,9.182,13.2,3.507,17l1.961-6.428L0,6.493l6.887-.171Z" transform="translate(689.659 4496)" fill="#fbb040"/>
    <path id="Star_3" data-name="Star 3" d="M9.182,0l2.3,6.322,6.887.171L12.9,10.572,14.857,17,9.182,13.2,3.507,17l1.961-6.428L0,6.493l6.887-.171Z" transform="translate(710.32 4496)" fill="#fbb040"/>
    <path id="Star_4" data-name="Star 4" d="M9.182,0l2.3,6.322,6.887.171L12.9,10.572,14.857,17,9.182,13.2,3.507,17l1.961-6.428L0,6.493l6.887-.171Z" transform="translate(730.977 4496)" fill="#fbb040"/>
    <path id="Star_5" data-name="Star 5" d="M9.182,0l2.3,6.322,6.887.171L12.9,10.572,14.857,17,9.182,13.2,3.507,17l1.961-6.428L0,6.493l6.887-.171Z" transform="translate(751.637 4496)" fill="#fbb040"/>
  </g>
</svg>
