<svg xmlns="http://www.w3.org/2000/svg" xmlns:xlink="http://www.w3.org/1999/xlink" width="42.455" height="42.455" viewBox="0 0 42.455 42.455">
  <defs>
    <filter id="world" x="0" y="0" width="42.455" height="42.455" filterUnits="userSpaceOnUse">
      <feOffset dy="1.037" input="SourceAlpha"/>
      <feGaussianBlur stdDeviation="2.479" result="blur"/>
      <feFlood flood-opacity="0.055"/>
      <feComposite operator="in" in2="blur"/>
      <feComposite in="SourceGraphic"/>
    </filter>
  </defs>
  <g transform="matrix(1, 0, 0, 1, 0, 0)" filter="url(#world)">
    <g id="world-2" data-name="world" transform="translate(7.44 6.4)" fill="none">
      <path d="M13.79,0A13.79,13.79,0,1,0,27.58,13.79,13.79,13.79,0,0,0,13.79,0ZM3.106,11.032a11.117,11.117,0,0,0,0,5.516h3.92c-.086-.893-.13-1.816-.13-2.758s.045-1.865.13-2.758ZM4.234,8.274h3.2a18.907,18.907,0,0,1,1.192-3.82q.125-.28.259-.55A11.082,11.082,0,0,0,4.234,8.274ZM9.8,11.032a26.475,26.475,0,0,0,0,5.516h7.986a26.076,26.076,0,0,0,.144-2.758,26.076,26.076,0,0,0-.144-2.758Zm7.521-2.758H10.262a15.5,15.5,0,0,1,.888-2.7,7,7,0,0,1,1.444-2.221,1.773,1.773,0,0,1,1.2-.6,1.773,1.773,0,0,1,1.2.6A7,7,0,0,1,16.43,5.574,15.5,15.5,0,0,1,17.318,8.274Zm3.237,2.758c.086.893.13,1.816.13,2.758s-.045,1.865-.13,2.758h3.92a11.117,11.117,0,0,0,0-5.516Zm2.791-2.758h-3.2a18.907,18.907,0,0,0-1.192-3.82q-.125-.28-.259-.55A11.081,11.081,0,0,1,23.346,8.274ZM8.889,23.676a11.082,11.082,0,0,1-4.655-4.37h3.2a18.907,18.907,0,0,0,1.192,3.82Q8.754,23.406,8.889,23.676Zm2.261-1.67a15.5,15.5,0,0,1-.888-2.7h7.056a15.5,15.5,0,0,1-.888,2.7,7,7,0,0,1-1.444,2.221,1.773,1.773,0,0,1-1.2.6,1.773,1.773,0,0,1-1.2-.6A7,7,0,0,1,11.15,22.006Zm7.8,1.12a18.907,18.907,0,0,0,1.192-3.82h3.2a11.081,11.081,0,0,1-4.655,4.37Q18.826,23.407,18.951,23.126Z" stroke="none"/>
      <path d="M 13.78999996185303 0 C 21.40600967407227 0 27.57999992370605 6.173990249633789 27.57999992370605 13.78999996185303 C 27.57999992370605 21.40600967407227 21.40600967407227 27.57999992370605 13.78999996185303 27.57999992370605 C 6.173990249633789 27.57999992370605 0 21.40600967407227 0 13.78999996185303 C 0 6.173990249633789 6.173990249633789 0 13.78999996185303 0 Z M 17.31797981262207 8.27400016784668 C 17.0784797668457 7.264089584350586 16.77719879150391 6.354780197143555 16.43025016784668 5.574159622192383 C 15.97797012329102 4.556509017944336 15.47511959075928 3.818349838256836 14.98641014099121 3.353260040283203 C 14.50481033325195 2.894929885864258 14.1028995513916 2.757999420166016 13.78999996185303 2.757999420166016 C 13.47710037231445 2.757999420166016 13.0751895904541 2.894929885864258 12.59358978271484 3.353260040283203 C 12.10488033294678 3.818349838256836 11.60202980041504 4.556509017944336 11.14974021911621 5.574159622192383 C 10.80279922485352 6.354780197143555 10.50152015686035 7.264089584350586 10.26202011108398 8.27400016784668 L 17.31797981262207 8.27400016784668 Z M 7.437189102172852 8.27400016784668 C 7.729499816894531 6.862590789794922 8.132820129394531 5.571460723876953 8.629449844360352 4.454029083251953 C 8.712549209594727 4.267049789428711 8.798900604248047 4.083520889282227 8.888500213623047 3.903940200805664 C 6.940389633178711 4.871669769287109 5.318929672241211 6.398269653320312 4.233879089355469 8.27400016784668 L 7.437189102172852 8.27400016784668 Z M 18.69149971008301 3.903940200805664 C 18.78110122680664 4.083520889282227 18.86743927001953 4.267049789428711 18.9505500793457 4.454029083251953 C 19.44717979431152 5.571460723876953 19.85050010681152 6.862590789794922 20.1428108215332 8.27400016784668 L 23.34610939025879 8.27400016784668 C 22.26107025146484 6.398279190063477 20.63961029052734 4.871669769287109 18.69149971008301 3.903940200805664 Z M 7.025070190429688 16.54800033569336 C 6.939510345458984 15.65450000762939 6.895000457763672 14.73169040679932 6.895000457763672 13.78999996185303 C 6.895000457763672 12.84830951690674 6.939510345458984 11.92549991607666 7.025070190429688 11.0319995880127 L 3.105560302734375 11.0319995880127 C 2.878669738769531 11.9135103225708 2.757999420166016 12.83765983581543 2.757999420166016 13.78999996185303 C 2.757999420166016 14.74234008789062 2.878669738769531 15.66648960113525 3.105560302734375 16.54800033569336 L 7.025070190429688 16.54800033569336 Z M 17.78295135498047 16.54800033569336 C 17.87664031982422 15.66878032684326 17.92700004577637 14.74536991119385 17.92700004577637 13.78999996185303 C 17.92700004577637 12.83463001251221 17.87664031982422 11.91121959686279 17.78295135498047 11.0319995880127 L 9.797039031982422 11.0319995880127 C 9.703359603881836 11.91121959686279 9.652999877929688 12.83463001251221 9.652999877929688 13.78999996185303 C 9.652999877929688 14.74536991119385 9.703359603881836 15.66878032684326 9.797039031982422 16.54800033569336 L 17.78295135498047 16.54800033569336 Z M 24.47443962097168 16.54800033569336 C 24.70133018493652 15.66648960113525 24.82200050354004 14.74234008789062 24.82200050354004 13.78999996185303 C 24.82200050354004 12.83765983581543 24.70133018493652 11.9135103225708 24.47443962097168 11.0319995880127 L 20.55492973327637 11.0319995880127 C 20.64048957824707 11.92549991607666 20.68499946594238 12.84830951690674 20.68499946594238 13.78999996185303 C 20.68499946594238 14.73169040679932 20.64048957824707 15.65450000762939 20.55492973327637 16.54800033569336 L 24.47443962097168 16.54800033569336 Z M 4.233879089355469 19.30599975585938 C 5.318929672241211 21.18173027038574 6.940389633178711 22.70833015441895 8.888500213623047 23.67605972290039 C 8.798900604248047 23.49647903442383 8.712549209594727 23.31295013427734 8.629449844360352 23.12596893310547 C 8.132820129394531 22.00854110717773 7.729499816894531 20.71741104125977 7.437189102172852 19.30599975585938 L 4.233879089355469 19.30599975585938 Z M 10.26202011108398 19.30599975585938 C 10.50152015686035 20.31591033935547 10.80279922485352 21.22521018981934 11.14974021911621 22.00584030151367 C 11.60202980041504 23.02347946166992 12.10488033294678 23.76165008544922 12.59358978271484 24.22673988342285 C 13.0751895904541 24.68506050109863 13.47710037231445 24.82200050354004 13.78999996185303 24.82200050354004 C 14.1028995513916 24.82200050354004 14.50481033325195 24.68506050109863 14.98641014099121 24.22673988342285 C 15.47511959075928 23.76165008544922 15.97797012329102 23.02347946166992 16.43025016784668 22.00584030151367 C 16.77719879150391 21.22521018981934 17.0784797668457 20.31591033935547 17.31797981262207 19.30599975585938 L 10.26202011108398 19.30599975585938 Z M 18.69149971008301 23.67605972290039 C 20.63961029052734 22.70833015441895 22.26107025146484 21.18172073364258 23.34610939025879 19.30599975585938 L 20.1428108215332 19.30599975585938 C 19.85050010681152 20.71741104125977 19.44717979431152 22.00854110717773 18.9505500793457 23.12596893310547 C 18.86745071411133 23.31295013427734 18.78110122680664 23.49646949768066 18.69149971008301 23.67605972290039 Z" stroke="none" fill="#ae68fa"/>
    </g>
  </g>
</svg>
